<?xml version="1.0" standalone="no"?><!-- Generator: Gravit.io --><svg xmlns="http://www.w3.org/2000/svg" xmlns:xlink="http://www.w3.org/1999/xlink" style="isolation:isolate" viewBox="111.031 0 1413.969 512" width="1413.969" height="512"><defs><clipPath id="_clipPath_FZPmTI6KGrjHpW8QV8W9xwGlefPhKsNQ"><rect x="111.031" y="0" width="1413.969" height="512"/></clipPath></defs><g clip-path="url(#_clipPath_FZPmTI6KGrjHpW8QV8W9xwGlefPhKsNQ)"><g><g><g><path d=" M 363.71 0 L 148.29 0 C 127.673 0 111.031 16.717 111.031 37.296 L 111.031 474.741 C 111.031 495.302 127.673 512 148.29 512 L 363.71 512 C 384.289 512 400.969 495.302 400.969 474.741 L 400.969 37.296 C 400.969 16.717 384.289 0 363.71 0 Z  M 202.845 22.65 L 309.193 22.65 C 311.879 22.65 314.062 26.662 314.062 31.625 C 314.062 36.587 311.879 40.617 309.193 40.617 L 202.845 40.617 C 200.139 40.617 197.994 36.587 197.994 31.625 C 197.994 26.662 200.139 22.65 202.845 22.65 Z  M 256.019 475.189 C 242.902 475.189 232.23 464.517 232.23 451.382 C 232.23 438.247 242.902 427.612 256.019 427.612 C 269.098 427.612 279.77 438.247 279.77 451.382 C 279.77 464.517 269.098 475.189 256.019 475.189 Z  M 373.057 393.674 L 138.961 393.674 L 138.961 62.932 L 373.057 62.932 L 373.057 393.674 Z " fill="rgb(77,77,77)"/></g></g><g><path d=" M 248.279 257.029 L 240.559 241.589 L 217.399 257.029 C 217.399 269.82 227.768 280.189 240.559 280.189 C 244.823 280.189 248.279 269.82 248.279 257.029 Z " fill="rgb(79,79,79)"/><circle vector-effect="non-scaling-stroke" cx="240.55897066666728" cy="121.9291226666666" r="11.580000000000013" fill="rgb(252,177,0)"/><path d=" M 240.559 133.509 L 240.559 179.829 C 253.35 179.829 263.719 169.46 263.719 156.669 C 263.719 143.878 253.35 133.509 240.559 133.509 Z " fill="rgb(246,185,178)"/><path d=" M 248.279 156.669 C 248.279 143.878 244.823 133.509 240.559 133.509 C 227.768 133.509 217.399 143.878 217.399 156.669 C 217.399 169.46 227.768 179.829 240.559 179.829 C 244.823 179.829 248.279 169.46 248.279 156.669 Z " fill="rgb(240,218,214)"/><path d=" M 333.199 305.922 L 307.466 295.675 L 317.759 329.082 L 333.199 329.082 L 333.199 305.922 Z " fill="rgb(241,241,241)"/><path d=" M 317.69 295.629 L 302.319 305.922 L 302.319 329.082 L 317.759 329.082 L 317.759 295.675 L 317.69 295.629 Z " fill="rgb(187,219,224)"/><path d=" M 333.199 258.696 C 333.199 254.432 329.743 250.976 325.479 250.976 L 317.759 250.976 L 312.613 278.449 L 317.759 305.922 L 333.199 305.922 L 333.199 258.696 Z " fill="rgb(252,177,0)"/><path d=" M 310.039 250.976 C 305.776 250.976 302.319 254.432 302.319 258.696 L 302.319 305.922 L 317.759 305.922 L 317.759 250.976 L 310.039 250.976 Z " fill="rgb(253,198,76)"/><path d=" M 240.559 241.589 L 240.559 280.189 C 253.35 280.189 263.719 269.82 263.719 257.029 L 240.559 241.589 Z " fill="rgb(53,53,53)"/><rect x="225.119" y="195.254" width="30.88" height="38.589" transform="matrix(1,0,0,1,0,0)" fill="rgb(255,255,255)"/><path d=" M 255.999 195.269 L 240.559 223.045 L 225.119 223.045 L 240.559 257.013 L 263.719 257.013 L 263.719 205.547 L 255.999 195.269 Z " fill="rgb(79,79,79)"/><path d=" M 225.119 195.269 L 217.399 257.013 L 240.559 257.013 L 240.559 223.045 L 225.119 195.269 Z " fill="rgb(105,105,105)"/><path d=" M 209.679 205.562 L 209.679 272.469 C 218.207 272.469 225.119 265.557 225.119 257.029 L 225.119 195.269 L 219.973 195.269 C 214.287 195.269 209.679 199.877 209.679 205.562 Z " fill="rgb(153,153,153)"/><path d=" M 261.146 195.269 L 255.999 195.269 L 255.999 257.029 C 255.999 265.557 262.912 272.469 271.439 272.469 L 271.439 205.562 C 271.439 199.877 266.831 195.269 261.146 195.269 Z " fill="rgb(128,128,128)"/><path d=" M 240.559 183.689 C 255.458 183.689 267.579 171.568 267.579 156.669 C 267.579 145.879 261.22 136.55 252.055 132.223 C 254.505 129.489 255.999 125.881 255.999 121.929 C 255.999 113.416 249.073 106.489 240.559 106.489 C 232.046 106.489 225.119 113.416 225.119 121.929 C 225.119 125.881 226.614 129.49 229.064 132.223 C 219.899 136.55 213.539 145.879 213.539 156.669 C 213.539 171.568 225.66 183.689 240.559 183.689 Z  M 232.839 121.929 C 232.839 117.672 236.303 114.209 240.559 114.209 C 244.816 114.209 248.279 117.672 248.279 121.929 C 248.279 126.186 244.816 129.649 240.559 129.649 C 236.303 129.649 232.839 126.186 232.839 121.929 Z  M 240.559 137.369 C 251.202 137.369 259.859 146.027 259.859 156.669 C 259.859 167.311 251.202 175.969 240.559 175.969 C 229.917 175.969 221.259 167.311 221.259 156.669 C 221.259 146.027 229.917 137.369 240.559 137.369 Z " fill="rgb(77,77,77)"/><path d=" M 232.839 164.542 C 235.639 164.542 238.333 163.655 240.559 162.067 C 242.786 163.655 245.48 164.542 248.279 164.542 C 250.412 164.542 252.139 162.814 252.139 160.682 C 252.139 158.551 250.412 156.822 248.279 156.822 C 246.468 156.822 244.763 155.935 243.716 154.448 C 242.993 153.421 241.816 152.809 240.559 152.809 C 239.303 152.809 238.126 153.421 237.403 154.448 C 236.356 155.935 234.65 156.822 232.839 156.822 C 230.707 156.822 228.979 158.551 228.979 160.682 C 228.979 162.814 230.707 164.542 232.839 164.542 Z " fill="rgb(77,77,77)"/><path d=" M 346.48 240.818 L 321.619 226.491 L 321.619 224.201 C 326.113 222.608 329.339 218.314 329.339 213.282 C 329.339 206.896 324.144 201.702 317.759 201.702 L 274.76 201.702 C 273.075 195.769 267.612 191.409 261.146 191.409 L 256.432 191.409 C 256.218 191.392 256.005 191.39 255.794 191.409 L 225.599 191.409 C 225.375 191.388 225.149 191.39 224.923 191.409 L 219.973 191.409 C 213.558 191.409 208.129 195.7 206.399 201.562 C 184.515 199.881 167.22 181.549 167.22 159.242 C 167.22 157.11 165.492 155.382 163.36 155.382 C 161.228 155.382 159.5 157.11 159.5 159.242 C 159.5 185.612 179.947 207.297 205.82 209.275 L 205.82 272.469 C 205.82 274.601 207.548 276.329 209.68 276.329 C 213.194 276.329 216.487 275.381 219.328 273.734 C 219.935 274.504 220.579 275.239 221.26 275.934 L 221.26 358.21 L 208.459 362.477 C 206.437 363.151 205.344 365.337 206.018 367.36 C 206.558 368.977 208.063 370 209.679 370 C 210.084 370 210.496 369.936 210.901 369.801 L 226.341 364.654 C 227.917 364.129 228.98 362.654 228.98 360.992 L 228.98 281.435 C 232.541 283.126 236.485 284.049 240.56 284.049 C 244.635 284.049 248.579 283.126 252.14 281.435 L 252.14 360.992 C 252.14 362.653 253.203 364.128 254.779 364.654 L 270.219 369.8 C 270.624 369.935 271.036 369.999 271.441 369.999 C 273.057 369.999 274.562 368.976 275.102 367.359 C 275.776 365.337 274.683 363.151 272.661 362.477 L 259.86 358.21 L 259.86 275.934 C 260.541 275.24 261.185 274.504 261.792 273.734 C 264.633 275.381 267.926 276.329 271.44 276.329 C 273.572 276.329 275.3 274.601 275.3 272.469 L 275.3 209.422 L 317.76 209.422 C 319.889 209.422 321.62 211.154 321.62 213.282 C 321.62 215.411 319.889 217.142 317.76 217.142 C 315.628 217.142 313.9 218.871 313.9 221.002 L 313.9 226.492 L 289.035 240.82 C 285.269 242.997 283.02 246.793 283.02 250.976 C 283.02 257.361 288.215 262.556 294.6 262.556 L 298.46 262.556 L 298.46 329.082 C 298.46 331.214 300.188 332.942 302.32 332.942 L 333.2 332.942 C 335.332 332.942 337.06 331.214 337.06 329.082 L 337.06 262.556 L 340.92 262.556 C 347.305 262.556 352.5 257.361 352.5 250.976 C 352.499 246.781 350.248 242.983 346.48 240.818 Z  M 244.419 253.169 L 244.419 224.009 L 252.139 210.251 L 252.139 253.169 L 244.419 253.169 Z  M 228.979 210.047 L 236.699 224.083 L 236.699 253.169 L 228.979 253.169 L 228.979 210.047 Z  M 240.568 215.097 L 231.785 199.129 L 249.528 199.129 L 240.568 215.097 Z  M 213.539 205.562 C 213.539 202.015 216.425 199.129 219.973 199.129 L 221.259 199.129 L 221.259 257.029 C 221.259 262.062 218.033 266.355 213.539 267.948 L 213.539 205.562 Z  M 225.116 268.599 C 226.802 266.356 228.011 263.736 228.591 260.889 L 252.528 260.889 C 253.108 263.736 254.317 266.356 256.002 268.599 C 252.384 273.422 246.678 276.329 240.559 276.329 C 234.44 276.329 228.735 273.422 225.116 268.599 Z  M 267.579 267.948 C 263.086 266.355 259.859 262.062 259.859 257.029 L 259.859 199.129 L 261.146 199.129 C 264.694 199.129 267.579 202.015 267.579 205.562 L 267.579 267.948 Z  M 329.339 302.062 L 306.179 302.062 L 306.179 258.696 C 306.179 256.567 307.911 254.836 310.039 254.836 L 325.479 254.836 C 327.608 254.836 329.339 256.567 329.339 258.696 L 329.339 302.062 Z  M 306.179 325.222 L 306.179 309.782 L 329.339 309.782 L 329.339 325.222 L 306.179 325.222 Z  M 340.919 254.836 L 336.396 254.836 C 334.802 250.343 330.511 247.116 325.479 247.116 L 310.039 247.116 C 305.008 247.116 300.717 250.343 299.123 254.836 L 294.599 254.836 C 292.471 254.836 290.739 253.104 290.739 250.976 C 290.739 249.583 291.546 248.285 292.894 247.507 L 317.759 233.177 L 342.629 247.509 C 343.976 248.282 344.779 249.578 344.779 250.976 C 344.779 253.104 343.048 254.836 340.919 254.836 Z " fill="rgb(77,77,77)"/></g></g><g transform="matrix(1,0,0,1,471,114.063)"><text transform="matrix(1,0,0,1,0,131.738)" style="font-family:'Roboto';font-weight:700;font-size:142px;font-style:normal;font-variant-ligatures:none;letter-spacing:5;fill:#4d4d4d;stroke:none;">HOTEL </text><text transform="matrix(1,0,0,1,502.455,131.738)" style="font-family:'Roboto';font-weight:700;font-size:142px;font-style:normal;font-variant-ligatures:none;letter-spacing:5;fill:#fcb100;stroke:none;">BUTLER</text></g><g transform="matrix(1,0,0,1,471,313.563)"><text transform="matrix(1,0,0,1,0,66.797)" style="font-family:'Roboto';font-weight:400;font-size:72px;font-style:normal;font-variant-ligatures:none;letter-spacing:15;fill:#fcb100;stroke:none;">AUTOMATED </text><text transform="matrix(1,0,0,1,589.383,66.797)" style="font-family:'Roboto';font-weight:400;font-size:72px;font-style:normal;font-variant-ligatures:none;letter-spacing:15;fill:#4d4d4d;stroke:none;">SOLUTION</text></g></g></svg>