<?xml version="1.0" encoding="utf-8"?>
<!-- Generator: Adobe Illustrator 22.1.0, SVG Export Plug-In . SVG Version: 6.00 Build 0)  -->
<svg version="1.1" id="Layer_1" xmlns="http://www.w3.org/2000/svg" xmlns:xlink="http://www.w3.org/1999/xlink" x="0px" y="0px"
	 viewBox="0 0 640 400" style="enable-background:new 0 0 640 400;" xml:space="preserve">
<style type="text/css">
	.st0{fill:#FFFFFF;}
	.st1{fill:#4D4D4D;}
	.st2{fill:#4F4F4F;}
	.st3{fill:#FCB100;}
	.st4{fill:#F6B9B2;}
	.st5{fill:#F0DAD6;}
	.st6{fill:#F1F1F1;}
	.st7{fill:#BBDBE0;}
	.st8{fill:#FDC64C;}
	.st9{fill:#353535;}
	.st10{fill:#696969;}
	.st11{fill:#999999;}
	.st12{fill:#808080;}
	.st13{font-family:'Montserrat-Bold';}
	.st14{font-size:45px;}
	.st15{font-family:'Montserrat-Medium';}
	.st16{font-size:18px;}
	.st17{letter-spacing:5.3;}
</style>
<rect x="-12" y="-4" class="st0" width="665" height="412"/>
<g>
	<g>
		<g>
			<path class="st1" d="M185.8,41.2H52.1C39.3,41.2,29,51.6,29,64.3v271.5c0,12.8,10.3,23.1,23.1,23.1h133.7
				c12.8,0,23.1-10.4,23.1-23.1V64.3C209,51.6,198.6,41.2,185.8,41.2z M86,55.3h66c1.7,0,3,2.5,3,5.6c0,3.1-1.4,5.6-3,5.6H86
				c-1.7,0-3-2.5-3-5.6C83,57.7,84.3,55.3,86,55.3z M119,336.2c-8.1,0-14.8-6.6-14.8-14.8c0-8.2,6.6-14.8,14.8-14.8
				c8.1,0,14.7,6.6,14.7,14.8C133.7,329.5,127.1,336.2,119,336.2z M191.6,285.6H46.3V80.3h145.3L191.6,285.6L191.6,285.6z"/>
		</g>
	</g>
	<g>
		<path class="st2" d="M120.3,190.6l-3.7-7.4l-11.2,7.4c0,6.2,5,11.2,11.2,11.2C118.6,201.7,120.3,196.7,120.3,190.6z"/>
		<circle class="st3" cx="116.5" cy="125.4" r="5.6"/>
		<path class="st4" d="M116.5,131v22.3c6.2,0,11.2-5,11.2-11.2S122.7,131,116.5,131z"/>
		<path class="st5" d="M120.3,142.2c0-6.2-1.7-11.2-3.7-11.2c-6.2,0-11.2,5-11.2,11.2s5,11.2,11.2,11.2
			C118.6,153.3,120.3,148.3,120.3,142.2z"/>
		<polygon class="st6" points="161.2,214.1 148.8,209.2 153.8,225.3 161.2,225.3 		"/>
		<polygon class="st7" points="153.7,209.2 146.3,214.1 146.3,225.3 153.8,225.3 153.8,209.2 		"/>
		<path class="st3" d="M161.2,191.4c0-2.1-1.7-3.7-3.7-3.7h-3.7l-2.5,13.2l2.5,13.2h7.4V191.4z"/>
		<path class="st8" d="M150,187.6c-2.1,0-3.7,1.7-3.7,3.7v22.8h7.4v-26.5H150z"/>
		<path class="st9" d="M116.5,183.1v18.6c6.2,0,11.2-5,11.2-11.2L116.5,183.1z"/>
		<rect x="109.1" y="160.8" class="st0" width="14.9" height="18.6"/>
		<polygon class="st2" points="124,160.8 116.5,174.2 109.1,174.2 116.5,190.5 127.7,190.5 127.7,165.7 		"/>
		<polygon class="st10" points="109.1,160.8 105.4,190.5 116.5,190.5 116.5,174.2 		"/>
		<path class="st11" d="M101.7,165.7V198c4.1,0,7.4-3.3,7.4-7.4v-29.8h-2.5C103.9,160.8,101.7,163,101.7,165.7z"/>
		<path class="st12" d="M126.5,160.8H124v29.8c0,4.1,3.3,7.4,7.4,7.4v-32.2C131.4,163,129.2,160.8,126.5,160.8z"/>
		<path class="st1" d="M116.5,155.2c7.2,0,13-5.8,13-13c0-5.2-3.1-9.7-7.5-11.8c1.2-1.3,1.9-3.1,1.9-5c0-4.1-3.3-7.4-7.4-7.4
			s-7.4,3.3-7.4,7.4c0,1.9,0.7,3.6,1.9,5c-4.4,2.1-7.5,6.6-7.5,11.8C103.5,149.4,109.4,155.2,116.5,155.2z M112.8,125.4
			c0-2.1,1.7-3.7,3.7-3.7s3.7,1.7,3.7,3.7s-1.7,3.7-3.7,3.7S112.8,127.5,112.8,125.4z M116.5,132.9c5.1,0,9.3,4.2,9.3,9.3
			c0,5.1-4.2,9.3-9.3,9.3s-9.3-4.2-9.3-9.3C107.2,137.1,111.4,132.9,116.5,132.9z"/>
		<path class="st1" d="M112.8,146c1.3,0,2.6-0.4,3.7-1.2c1.1,0.8,2.4,1.2,3.7,1.2c1,0,1.9-0.8,1.9-1.9s-0.8-1.9-1.9-1.9
			c-0.9,0-1.7-0.4-2.2-1.1c-0.3-0.5-0.9-0.8-1.5-0.8c-0.6,0-1.2,0.3-1.5,0.8c-0.5,0.7-1.3,1.1-2.2,1.1c-1,0-1.9,0.8-1.9,1.9
			S111.8,146,112.8,146z"/>
		<path class="st1" d="M167.6,182.7l-12-6.9v-1.1c2.2-0.8,3.7-2.8,3.7-5.3c0-3.1-2.5-5.6-5.6-5.6H133c-0.8-2.9-3.4-5-6.6-5h-2.3
			c-0.1,0-0.2,0-0.3,0h-14.6c-0.1,0-0.2,0-0.3,0h-2.4c-3.1,0-5.7,2.1-6.5,4.9c-10.5-0.8-18.9-9.6-18.9-20.4c0-1-0.8-1.9-1.9-1.9
			c-1,0-1.9,0.8-1.9,1.9c0,12.7,9.9,23.2,22.3,24.1V198c0,1,0.8,1.9,1.9,1.9c1.7,0,3.3-0.5,4.7-1.3c0.3,0.4,0.6,0.7,0.9,1.1v39.7
			l-6.2,2.1c-1,0.3-1.5,1.4-1.2,2.4c0.3,0.8,1,1.3,1.8,1.3c0.2,0,0.4,0,0.6-0.1l7.4-2.5c0.8-0.3,1.3-1,1.3-1.8v-38.3
			c1.7,0.8,3.6,1.3,5.6,1.3c2,0,3.9-0.4,5.6-1.3v38.3c0,0.8,0.5,1.5,1.3,1.8l7.4,2.5c0.2,0.1,0.4,0.1,0.6,0.1c0.8,0,1.5-0.5,1.8-1.3
			c0.3-1-0.2-2-1.2-2.4l-6.2-2.1v-39.7c0.3-0.3,0.6-0.7,0.9-1.1c1.4,0.8,3,1.3,4.7,1.3c1,0,1.9-0.8,1.9-1.9v-30.4h20.5
			c1,0,1.9,0.8,1.9,1.9c0,1-0.8,1.9-1.9,1.9c-1,0-1.9,0.8-1.9,1.9v2.6l-12,6.9c-1.8,1-2.9,2.9-2.9,4.9c0,3.1,2.5,5.6,5.6,5.6h1.9
			v32.1c0,1,0.8,1.9,1.9,1.9h14.9c1,0,1.9-0.8,1.9-1.9v-32.1h1.9c3.1,0,5.6-2.5,5.6-5.6C170.5,185.6,169.4,183.8,167.6,182.7z
			 M118.4,188.7v-14.1l3.7-6.6v20.7H118.4z M111,167.9l3.7,6.8v14H111V167.9z M116.6,170.3l-4.2-7.7h8.6L116.6,170.3z M103.5,165.7
			c0-1.7,1.4-3.1,3.1-3.1h0.6v27.9c0,2.4-1.6,4.5-3.7,5.3V165.7z M109.1,196.1c0.8-1.1,1.4-2.3,1.7-3.7h11.5
			c0.3,1.4,0.9,2.6,1.7,3.7c-1.7,2.3-4.5,3.7-7.4,3.7S110.9,198.5,109.1,196.1z M129.6,195.8c-2.2-0.8-3.7-2.8-3.7-5.3v-27.9h0.6
			c1.7,0,3.1,1.4,3.1,3.1V195.8z M159.3,212.3h-11.2v-20.9c0-1,0.8-1.9,1.9-1.9h7.4c1,0,1.9,0.8,1.9,1.9V212.3z M148.2,223.4V216
			h11.2v7.4H148.2z M164.9,189.5h-2.2c-0.8-2.2-2.8-3.7-5.3-3.7H150c-2.4,0-4.5,1.6-5.3,3.7h-2.2c-1,0-1.9-0.8-1.9-1.9
			c0-0.7,0.4-1.3,1-1.7l12-6.9l12,6.9c0.6,0.4,1,1,1,1.7C166.8,188.7,165.9,189.5,164.9,189.5z"/>
	</g>
</g>
<text transform="matrix(1 0 0 1.5 247 183)"><tspan x="0" y="0" class="st1 st13 st14">HOTEL</tspan><tspan x="159.5" y="0" class="st13 st14"> </tspan><tspan x="172.3" y="0" class="st3 st13 st14">BUTLER</tspan></text>
<text transform="matrix(1.1371 0 0 1.5 247.002 225)"><tspan x="0" y="0" class="st3 st15 st16 st17">AUTOMATED</tspan><tspan x="169.6" y="0" class="st15 st16 st17"> </tspan><tspan x="179.8" y="0" class="st1 st15 st16 st17">SOLUTION</tspan></text>
</svg>
