<?xml version="1.0" encoding="utf-8"?>
<!-- Generator: Adobe Illustrator 22.1.0, SVG Export Plug-In . SVG Version: 6.00 Build 0)  -->
<svg version="1.1" id="Warstwa_1" xmlns="http://www.w3.org/2000/svg" xmlns:xlink="http://www.w3.org/1999/xlink" x="0px" y="0px"
	 viewBox="0 0 587.9 200" style="enable-background:new 0 0 587.9 200;" xml:space="preserve">
<style type="text/css">
	.st0{fill:#F1F1F1;}
	.st1{fill:#4F4F4F;}
	.st2{fill:#FCB100;}
	.st3{fill:#F6B9B2;}
	.st4{fill:#F0DAD6;}
	.st5{fill:#BBDBE0;}
	.st6{fill:#FDC64C;}
	.st7{fill:#353535;}
	.st8{fill:#FFFFFF;}
	.st9{fill:#696969;}
	.st10{fill:#999999;}
	.st11{fill:#808080;}
	.st12{fill:#4D4D4D;}
	.st13{font-family:'Montserrat-Bold';}
	.st14{font-size:46px;}
	.st15{letter-spacing:1;}
	.st16{font-family:'Montserrat-Light';}
	.st17{font-size:33px;}
	.st18{letter-spacing:0.9;}
</style>
<g>
	<g>
		<path class="st0" d="M112.2,19H42.7c-6.6,0-12,5.4-12,12v141.1c0,6.6,5.4,12,12,12h69.5c6.6,0,12-5.4,12-12V31
			C124.2,24.4,118.8,19,112.2,19z M60.3,26.3h34.3c0.9,0,1.6,1.3,1.6,2.9s-0.7,2.9-1.6,2.9H60.3c-0.9,0-1.6-1.3-1.6-2.9
			C58.7,27.6,59.4,26.3,60.3,26.3z M77.5,172.3c-4.2,0-7.7-3.4-7.7-7.7s3.4-7.7,7.7-7.7c4.2,0,7.7,3.4,7.7,7.7
			S81.7,172.3,77.5,172.3z M115.2,146H39.7V39.3h75.5L115.2,146L115.2,146z"/>
	</g>
</g>
<g>
	<path class="st1" d="M78.5,98.2L76.4,94l-6.2,4.1c0,3.4,2.8,6.2,6.2,6.2C77.6,104.4,78.5,101.6,78.5,98.2z"/>
	<circle class="st2" cx="76.4" cy="62" r="3.1"/>
	<path class="st3" d="M76.4,65.1v12.4c3.4,0,6.2-2.8,6.2-6.2C82.6,67.9,79.9,65.1,76.4,65.1z"/>
	<path class="st4" d="M78.5,71.3c0-3.4-0.9-6.2-2.1-6.2c-3.4,0-6.2,2.8-6.2,6.2c0,3.4,2.8,6.2,6.2,6.2
		C77.6,77.5,78.5,74.7,78.5,71.3z"/>
	<polygon class="st0" points="101.2,111.3 94.3,108.5 97.1,117.5 101.2,117.5 	"/>
	<polygon class="st5" points="97.1,108.5 93,111.3 93,117.5 97.1,117.5 97.1,108.5 	"/>
	<path class="st2" d="M101.2,98.6c0-1.1-0.9-2.1-2.1-2.1h-2.1l-1.4,7.4l1.4,7.4h4.1V98.6z"/>
	<path class="st6" d="M95,96.6c-1.1,0-2.1,0.9-2.1,2.1v12.6h4.1V96.6H95z"/>
	<path class="st7" d="M76.4,94v10.3c3.4,0,6.2-2.8,6.2-6.2L76.4,94z"/>
	<rect x="72.3" y="81.6" class="st8" width="8.3" height="10.3"/>
	<polygon class="st1" points="80.6,81.6 76.4,89.1 72.3,89.1 76.4,98.2 82.6,98.2 82.6,84.4 	"/>
	<polygon class="st9" points="72.3,81.6 70.2,98.2 76.4,98.2 76.4,89.1 	"/>
	<path class="st10" d="M68.2,84.4v17.9c2.3,0,4.1-1.9,4.1-4.1V81.6h-1.4C69.4,81.6,68.2,82.9,68.2,84.4z"/>
	<path class="st11" d="M81.9,81.6h-1.4v16.5c0,2.3,1.9,4.1,4.1,4.1V84.4C84.7,82.9,83.5,81.6,81.9,81.6z"/>
	<path class="st0" d="M76.4,78.5c4,0,7.2-3.2,7.2-7.2c0-2.9-1.7-5.4-4.2-6.5c0.7-0.7,1.1-1.7,1.1-2.8c0-2.3-1.9-4.1-4.1-4.1
		s-4.1,1.9-4.1,4.1c0,1.1,0.4,2,1.1,2.8c-2.5,1.2-4.2,3.7-4.2,6.5C69.2,75.3,72.4,78.5,76.4,78.5z M74.4,62c0-1.1,0.9-2.1,2.1-2.1
		s2.1,0.9,2.1,2.1s-0.9,2.1-2.1,2.1S74.4,63.1,74.4,62z M76.4,66.1c2.8,0,5.2,2.3,5.2,5.2c0,2.8-2.3,5.2-5.2,5.2s-5.2-2.3-5.2-5.2
		C71.3,68.5,73.6,66.1,76.4,66.1z"/>
	<path class="st12" d="M74.4,73.4c0.7,0,1.5-0.2,2.1-0.7c0.6,0.4,1.3,0.7,2.1,0.7c0.6,0,1-0.5,1-1c0-0.6-0.5-1-1-1
		c-0.5,0-0.9-0.2-1.2-0.6c-0.2-0.3-0.5-0.4-0.8-0.4c-0.3,0-0.7,0.2-0.8,0.4c-0.3,0.4-0.7,0.6-1.2,0.6c-0.6,0-1,0.5-1,1
		C73.3,72.9,73.8,73.4,74.4,73.4z"/>
	<path class="st0" d="M104.8,93.8L98.1,90v-0.6c1.2-0.4,2.1-1.6,2.1-2.9c0-1.7-1.4-3.1-3.1-3.1H85.6c-0.5-1.6-1.9-2.8-3.6-2.8h-1.3
		c-0.1,0-0.1,0-0.2,0h-8.1c-0.1,0-0.1,0-0.2,0h-1.3c-1.7,0-3.2,1.1-3.6,2.7C61.4,82.9,56.8,78,56.8,72c0-0.6-0.5-1-1-1
		c-0.6,0-1,0.5-1,1c0,7.1,5.5,12.9,12.4,13.4v16.9c0,0.6,0.5,1,1,1c0.9,0,1.8-0.3,2.6-0.7c0.2,0.2,0.3,0.4,0.5,0.6v22l-3.4,1.1
		c-0.5,0.2-0.8,0.8-0.7,1.3c0.1,0.4,0.5,0.7,1,0.7c0.1,0,0.2,0,0.3-0.1l4.1-1.4c0.4-0.1,0.7-0.5,0.7-1v-21.3c1,0.5,2,0.7,3.1,0.7
		c1.1,0,2.1-0.2,3.1-0.7V126c0,0.4,0.3,0.8,0.7,1l4.1,1.4c0.1,0,0.2,0.1,0.3,0.1c0.4,0,0.8-0.3,1-0.7c0.2-0.5-0.1-1.1-0.7-1.3
		l-3.4-1.1v-22c0.2-0.2,0.4-0.4,0.5-0.6c0.8,0.4,1.6,0.7,2.6,0.7c0.6,0,1-0.5,1-1V85.4h11.4c0.6,0,1,0.5,1,1s-0.5,1-1,1
		c-0.6,0-1,0.5-1,1V90l-6.7,3.8c-1,0.6-1.6,1.6-1.6,2.7c0,1.7,1.4,3.1,3.1,3.1h1v17.8c0,0.6,0.5,1,1,1h8.3c0.6,0,1-0.5,1-1V99.7h1
		c1.7,0,3.1-1.4,3.1-3.1C106.4,95.4,105.8,94.4,104.8,93.8z M77.5,97.1v-7.8l2.1-3.7v11.5H77.5z M73.3,85.6l2.1,3.8v7.8h-2.1V85.6z
		 M76.4,86.9l-2.4-4.3h4.8L76.4,86.9z M69.2,84.4c0-0.9,0.8-1.7,1.7-1.7h0.3v15.5c0,1.3-0.9,2.5-2.1,2.9V84.4z M72.3,101.3
		c0.5-0.6,0.8-1.3,0.9-2.1h6.4c0.2,0.8,0.5,1.5,0.9,2.1c-1,1.3-2.5,2.1-4.1,2.1S73.3,102.6,72.3,101.3z M83.7,101.1
		c-1.2-0.4-2.1-1.6-2.1-2.9V82.7h0.3c0.9,0,1.7,0.8,1.7,1.7V101.1z M100.2,110.2H94V98.6c0-0.6,0.5-1,1-1h4.1c0.6,0,1,0.5,1,1V110.2
		z M94,116.4v-4.1h6.2v4.1H94z M103.3,97.6h-1.2c-0.4-1.2-1.6-2.1-2.9-2.1H95c-1.3,0-2.5,0.9-2.9,2.1h-1.2c-0.6,0-1-0.5-1-1
		c0-0.4,0.2-0.7,0.6-0.9l6.7-3.8l6.7,3.8c0.4,0.2,0.6,0.6,0.6,0.9C104.3,97.1,103.9,97.6,103.3,97.6z"/>
</g>
<text transform="matrix(1 0 0 1 177.6668 86.9491)" class="st0 st13 st14 st15">HOTEL BUTLER</text>
<text transform="matrix(1.0837 0 0 1 181.6665 133)" class="st0 st16 st17 st18">Automated Solution</text>
</svg>
